<?xml version="1.0" encoding="UTF-8" standalone="no"?>
<!-- Created with Inkscape (http://www.inkscape.org/) -->

<svg
   xmlns:dc="http://purl.org/dc/elements/1.1/"
   xmlns:cc="http://creativecommons.org/ns#"
   xmlns:rdf="http://www.w3.org/1999/02/22-rdf-syntax-ns#"
   xmlns:svg="http://www.w3.org/2000/svg"
   xmlns="http://www.w3.org/2000/svg"
   xmlns:sodipodi="http://sodipodi.sourceforge.net/DTD/sodipodi-0.dtd"
   xmlns:inkscape="http://www.inkscape.org/namespaces/inkscape"
   width="800"
   height="800"
   viewBox="0 0 800.00001 800.00001"
   id="svg2"
   version="1.1"
   inkscape:version="0.91 r13725"
   sodipodi:docname="Logo con CIMAT.svg"
   inkscape:export-filename="C:\Users\Andres\Desktop\Logo con nombre.png"
   inkscape:export-xdpi="90.003304"
   inkscape:export-ydpi="90.003304">
  <defs
     id="defs4">
    <clipPath
       clipPathUnits="userSpaceOnUse"
       id="clipPath4201">
      <path
         style="fill:none;fill-rule:evenodd;stroke:#000000;stroke-width:1px;stroke-linecap:butt;stroke-linejoin:miter;stroke-opacity:1"
         d="m 280,432.36212 0,320 -280,0 0,-320 z"
         id="path4203"
         inkscape:connector-curvature="0" />
    </clipPath>
  </defs>
  <sodipodi:namedview
     id="base"
     pagecolor="#ffffff"
     bordercolor="#666666"
     borderopacity="1.0"
     inkscape:pageopacity="0.0"
     inkscape:pageshadow="2"
     inkscape:zoom="0.98994949"
     inkscape:cx="385.98391"
     inkscape:cy="452.05926"
     inkscape:document-units="px"
     inkscape:current-layer="layer1"
     showgrid="true"
     units="px"
     inkscape:snap-nodes="false"
     inkscape:window-width="1366"
     inkscape:window-height="715"
     inkscape:window-x="-8"
     inkscape:window-y="183"
     inkscape:window-maximized="1">
    <inkscape:grid
       type="xygrid"
       id="grid4169" />
  </sodipodi:namedview>
  <metadata
     id="metadata7">
    <rdf:RDF>
      <cc:Work
         rdf:about="">
        <dc:format>image/svg+xml</dc:format>
        <dc:type
           rdf:resource="http://purl.org/dc/dcmitype/StillImage" />
        <dc:title></dc:title>
      </cc:Work>
    </rdf:RDF>
  </metadata>
  <g
     inkscape:label="Layer 1"
     inkscape:groupmode="layer"
     id="layer1"
     transform="translate(0,-252.36212)">
    <text
       xml:space="preserve"
       style="font-style:normal;font-weight:normal;font-size:26.25px;line-height:125%;font-family:'Times New Roman';letter-spacing:0px;word-spacing:0px;fill:#000000;fill-opacity:1;stroke:none;stroke-width:1px;stroke-linecap:butt;stroke-linejoin:miter;stroke-opacity:1;-inkscape-font-specification:'Times New Roman, ';font-stretch:normal;font-variant:normal;"
       x="360"
       y="392.36212"
       id="text4171"
       sodipodi:linespacing="125%"><tspan
         sodipodi:role="line"
         id="tspan4173"
         x="360"
         y="392.36212" /></text>
    <text
       xml:space="preserve"
       style="font-style:normal;font-weight:normal;font-size:26.77145004px;line-height:125%;font-family:sans-serif;letter-spacing:0px;word-spacing:0px;fill:#000000;fill-opacity:1;stroke:none;stroke-width:1px;stroke-linecap:butt;stroke-linejoin:miter;stroke-opacity:1"
       x="271.7077"
       y="768.20374"
       id="text4238"
       sodipodi:linespacing="125%"
       transform="scale(1.0198647,0.98052222)"><tspan
         sodipodi:role="line"
         id="tspan4240"
         x="271.7077"
         y="768.20374"
         style="font-style:normal;font-variant:normal;font-weight:normal;font-stretch:normal;font-size:70px;font-family:'Times New Roman';-inkscape-font-specification:'Times New Roman, ';fill:#73243d;fill-opacity:1">CIMAT</tspan></text>
    <path
       style="fill:none;fill-rule:evenodd;stroke:#73243d;stroke-width:2.20000005;stroke-linecap:butt;stroke-linejoin:miter;stroke-miterlimit:4;stroke-dasharray:none;stroke-opacity:1"
       d="m 356.06024,649.16768 c 1.53281,29.77198 20.09071,43.79861 52.46481,32.70369 l 57.23609,-51.94452 -0.0893,-37.58928 -76.46597,-57.56967 0,0"
       id="path4242"
       inkscape:connector-curvature="0"
       sodipodi:nodetypes="cccccc" />
    <path
       style="fill:none;fill-rule:evenodd;stroke:#73243d;stroke-width:2.1962564;stroke-linecap:butt;stroke-linejoin:miter;stroke-miterlimit:4;stroke-dasharray:none;stroke-opacity:1"
       d="m 422.7271,599.24746 -68.21623,49.11671 c -13.16089,6.98398 -48.08905,5.87468 -49.10855,-29.5412 l 0.7143,-88.80161 c 6.77509,-17.93335 21.71981,-30.6048 48.57282,-19.93143 l 0,0.35591"
       id="path4244"
       inkscape:connector-curvature="0"
       sodipodi:nodetypes="cccccc" />
    <path
       style="fill:none;fill-rule:evenodd;stroke:#73243d;stroke-width:2.20000005;stroke-linecap:butt;stroke-linejoin:miter;stroke-miterlimit:4;stroke-dasharray:none;stroke-opacity:1"
       d="m 443.91596,613.94017 c -0.80193,-1.00467 -58.33985,-45.81239 -58.33985,-45.81239"
       id="path4246"
       inkscape:connector-curvature="0" />
    <path
       style="fill:none;fill-rule:evenodd;stroke:#73243d;stroke-width:2.20000005;stroke-linecap:butt;stroke-linejoin:miter;stroke-miterlimit:4;stroke-dasharray:none;stroke-opacity:1"
       d="m 401.29685,580.99828 -49.16842,37.12119 c -10.11521,8.24923 -15.33253,5.332 -14.63389,-7.83547 l -1.01912,-63.39286 c -0.58488,-12.51228 7.96182,-9.8957 14.69013,-4.62622 l 7.6313,5.69765"
       id="path4248"
       inkscape:connector-curvature="0"
       sodipodi:nodetypes="cccccc" />
    <path
       style="fill:none;fill-rule:evenodd;stroke:#73243d;stroke-width:2.17738938;stroke-linecap:butt;stroke-linejoin:miter;stroke-miterlimit:4;stroke-dasharray:none;stroke-opacity:1"
       d="m 427.19973,563.4651 38.89589,-29.87978 -0.31622,32.53576 -17.86681,13.6119"
       id="path4250"
       inkscape:connector-curvature="0" />
    <path
       style="fill:#73243d;fill-opacity:1;fill-rule:evenodd;stroke:#73243d;stroke-width:2.20000005;stroke-linecap:butt;stroke-linejoin:miter;stroke-miterlimit:4;stroke-dasharray:none;stroke-opacity:1"
       d="m 388.26114,590.46257 0,-78.39286 c 0.79771,-12.89252 6.15193,-9.83727 11.60714,-6.42857 l 42.32143,43.03571 23.48214,-17.4107 -55.26786,-55.80358 c -29.45141,-11.85214 -46.0646,-2.87781 -54.10714,20 0,0 0.35714,118.57143 0.35714,119.28571 0,0.71429 32.14286,-23.57143 32.14286,-23.57143 z"
       id="path4252"
       inkscape:connector-curvature="0"
       sodipodi:nodetypes="cccccccscc" />
    <path
       style="fill:#73243d;fill-opacity:1;fill-rule:evenodd;stroke:#73243d;stroke-width:2.20000005;stroke-linecap:butt;stroke-linejoin:miter;stroke-miterlimit:4;stroke-dasharray:none;stroke-opacity:1"
       d="m 355.99711,648.72574 33.71384,-25.12755 0.18941,26.20084 c 1.73401,7.38715 5.37911,5.21886 9.09137,2.71478 l 65.16226,-60.97981 1.42858,1.25 0,37.41071 -56.875,51.42857 c -31.1731,10.73409 -49.81326,1.47517 -52.71046,-32.89754 z"
       id="path4256"
       inkscape:connector-curvature="0"
       sodipodi:nodetypes="ccccccccc" />
    <path
       style="fill:#89898c;fill-opacity:1;stroke:#73243d;stroke-width:1.11116779;stroke-linecap:round;stroke-linejoin:round;stroke-miterlimit:4;stroke-dasharray:none;stroke-dashoffset:0;stroke-opacity:1"
       d="m 334.68697,650.63638 c -8.12198,-0.83878 -14.66031,-3.85751 -19.5189,-9.0118 -3.9167,-4.15508 -6.23001,-8.74393 -7.49216,-14.86203 -0.91478,-4.43422 -0.94344,-6.72977 -0.63179,-50.60686 l 0.32646,-45.96194 2.51149,-4.93536 c 4.40087,-8.64818 10.54631,-14.15477 18.4692,-16.54921 5.17663,-1.56447 13.94897,-1.22477 20.27382,0.78509 2.36123,0.75033 4.80454,1.39626 5.42957,1.43541 l 1.13642,0.0712 0,16.26669 0,16.26669 -3.78156,-2.71315 c -8.7429,-6.27274 -14.82022,-5.421 -16.06914,2.25211 -0.15825,0.97227 -5.6e-4,18.13224 0.35046,38.13326 0.5774,32.90132 0.72425,36.57088 1.54154,38.52152 2.35169,5.61276 7.66498,5.57503 15.10922,-0.10729 1.30083,-0.99295 4.23558,-3.09092 6.52166,-4.66216 7.4824,-5.14271 29.88582,-21.91772 31.17809,-23.34522 0.69448,-0.76715 3.60045,-3.15286 6.45771,-5.30157 l 5.19503,-3.90675 9.85921,7.7021 c 5.42256,4.23616 9.96144,7.86753 10.08641,8.06973 0.12496,0.20219 -15.20496,11.51351 -34.0665,25.13625 -36.23726,26.17237 -36.54431,26.3657 -43.00353,27.07563 -5.36759,0.58996 -6.33402,0.61418 -9.88271,0.24769 z"
       id="path4272"
       inkscape:connector-curvature="0" />
    <path
       style="fill:#89898c;fill-opacity:1;stroke:#73243d;stroke-width:0.78571433;stroke-linecap:round;stroke-linejoin:round;stroke-miterlimit:4;stroke-dasharray:none;stroke-dashoffset:0;stroke-opacity:1"
       d="m 433.72458,604.21648 c -4.32142,-3.428 -16.01339,-12.60671 -25.98214,-20.39714 l -18.125,-14.16441 0,-16.35677 c 0,-8.99621 0.0866,-16.35676 0.19238,-16.35676 0.13721,0 63.65735,47.68936 71.82656,53.92561 0.7565,0.5775 0.60567,0.73948 -9.31955,10.00864 -5.54867,5.18191 -10.23398,9.45583 -10.4118,9.4976 -0.17782,0.0418 -3.85902,-2.72877 -8.18045,-6.15677 z"
       id="path4280"
       inkscape:connector-curvature="0" />
    <path
       style="fill:#89898c;fill-opacity:1;stroke:#73243d;stroke-width:0.59299999;stroke-linecap:round;stroke-linejoin:round;stroke-miterlimit:4;stroke-dasharray:none;stroke-dashoffset:0;stroke-opacity:1"
       d="m 440.5127,571.94145 c -4.22321,-3.18972 -8.49105,-6.41802 -9.48409,-7.17401 l -1.80552,-1.37452 14.21623,-10.92057 c 7.81893,-6.00631 15.84615,-12.17306 17.83826,-13.70388 l 3.62203,-2.78332 -0.11667,14.51028 c -0.0821,10.20871 -0.17649,14.63134 -0.31846,14.91864 -0.21121,0.42743 -15.78383,12.36958 -16.09464,12.34246 -0.0982,-0.009 -3.63392,-2.62536 -7.85714,-5.81508 z"
       id="path4282"
       inkscape:connector-curvature="0" />
    <ellipse
       style="fill:#73243d;fill-opacity:1;stroke:#73243d;stroke-width:0.90000004;stroke-linecap:round;stroke-linejoin:round;stroke-miterlimit:4;stroke-dasharray:none;stroke-dashoffset:0;stroke-opacity:1"
       id="path4286"
       cx="463.13641"
       cy="592.22028"
       rx="1.0417198"
       ry="1.0101526" />
    <ellipse
       style="fill:#73243d;fill-opacity:1;stroke:#73243d;stroke-width:0.65997797;stroke-linecap:round;stroke-linejoin:round;stroke-miterlimit:4;stroke-dasharray:none;stroke-dashoffset:0;stroke-opacity:1"
       id="path4286-0"
       cx="389.17657"
       cy="537.59973"
       rx="0.42512369"
       ry="1.3310565" />
    <path
       style="fill:none;fill-rule:evenodd;stroke:#73243d;stroke-width:2.20000005;stroke-linecap:butt;stroke-linejoin:miter;stroke-miterlimit:4;stroke-dasharray:none;stroke-opacity:1"
       d="m 391.11828,536.35542 -7.85714,-6.42857"
       id="path4303"
       inkscape:connector-curvature="0" />
    <path
       style="fill:none;fill-rule:evenodd;stroke:#73243d;stroke-width:1.03073657px;stroke-linecap:butt;stroke-linejoin:miter;stroke-opacity:1"
       d="m 442.30298,550.43039 c 20.33887,-15.90061 20.33887,-15.90061 20.33887,-15.90061"
       id="path4305"
       inkscape:connector-curvature="0" />
    <ellipse
       style="fill:#73243d;fill-opacity:1;stroke:#73243d;stroke-width:0;stroke-linecap:round;stroke-linejoin:round;stroke-miterlimit:4;stroke-dasharray:none;stroke-dashoffset:0;stroke-opacity:1"
       id="path4309"
       cx="441.85486"
       cy="610.80853"
       rx="0.20089285"
       ry="0.21205357" />
    <path
       style="fill:none;fill-rule:evenodd;stroke:#73243d;stroke-width:2.4000001;stroke-linecap:butt;stroke-linejoin:miter;stroke-miterlimit:4;stroke-dasharray:none;stroke-opacity:1"
       d="m 418.66292,602.02507 5.71429,-4.19643"
       id="path4315"
       inkscape:connector-curvature="0" />
  </g>
</svg>
